<svg xmlns="http://www.w3.org/2000/svg" viewBox="0 0 1200 900" role="img" aria-labelledby="title desc">
  <title id="title">Adire Luxe Capsule Robe</title>
  <desc id="desc">A fashion illustration style product image featuring a flowing indigo adire robe with gold accents.</desc>
  <defs>
    <linearGradient id="bg" x1="0" y1="0" x2="1" y2="1">
      <stop offset="0%" stop-color="#0f1a35"/>
      <stop offset="100%" stop-color="#37245d"/>
    </linearGradient>
    <pattern id="adire" width="50" height="50" patternUnits="userSpaceOnUse">
      <rect width="50" height="50" fill="#21406d"/>
      <path d="M0 25h50M25 0v50" stroke="#d9ecff" stroke-width="6" opacity=".8"/>
      <circle cx="25" cy="25" r="10" fill="none" stroke="#d9ecff" stroke-width="4"/>
    </pattern>
  </defs>
  <rect width="1200" height="900" fill="url(#bg)"/>
  <ellipse cx="600" cy="780" rx="220" ry="48" fill="#090d18" opacity=".45"/>
  <path d="M460 180c40-40 240-40 280 0l-50 70 70 400c-130 110-190 110-320 0l70-400z" fill="url(#adire)" stroke="#f4c76a" stroke-width="10"/>
  <path d="M600 215v420" stroke="#f4c76a" stroke-width="12"/>
  <path d="M510 260c30 40 150 40 180 0" fill="none" stroke="#f4c76a" stroke-width="10"/>
  <path d="M440 300c-80 120-110 260-70 330 70 30 120-10 160-90" fill="#193157" opacity=".85"/>
  <path d="M760 300c80 120 110 260 70 330-70 30-120-10-160-90" fill="#193157" opacity=".85"/>
  <circle cx="600" cy="145" r="54" fill="#c98f5d"/>
  <text x="110" y="760" fill="#f9e8bf" font-size="58" font-family="Georgia, serif">ADIRE LUXE CAPSULE ROBE</text>
</svg>
