<svg xmlns="http://www.w3.org/2000/svg" viewBox="0 0 1200 900" role="img" aria-labelledby="title desc">
  <title id="title">Krea84 Festival Merch Bundle</title>
  <desc id="desc">A bright festival merchandise arrangement with a t-shirt, tote bag, laminate pass, and poster print.</desc>
  <defs>
    <linearGradient id="bg" x1="0" y1="0" x2="1" y2="1">
      <stop offset="0%" stop-color="#34121c"/>
      <stop offset="100%" stop-color="#b0303f"/>
    </linearGradient>
  </defs>
  <rect width="1200" height="900" fill="url(#bg)"/>
  <circle cx="980" cy="160" r="120" fill="#ffbe55" opacity=".18"/>
  <rect x="90" y="140" width="1020" height="620" rx="34" fill="#fff4df" opacity=".08"/>
  <path d="M240 250h180l30 80-50 40v220H290V370l-50-40z" fill="#ffd166"/>
  <path d="M320 250v340" stroke="#c42a41" stroke-width="10"/>
  <rect x="500" y="260" width="200" height="250" rx="14" fill="#fff0c7"/>
  <path d="M555 260v-40h90v40" fill="none" stroke="#fff0c7" stroke-width="18"/>
  <rect x="770" y="250" width="150" height="240" rx="18" fill="#ffffff"/>
  <rect x="810" y="210" width="70" height="55" rx="10" fill="#ffbe55"/>
  <circle cx="845" cy="237" r="8" fill="#c42a41"/>
  <rect x="770" y="540" width="220" height="140" fill="#ffe29c"/>
  <path d="M795 570h170M795 610h170" stroke="#c42a41" stroke-width="12"/>
  <text x="110" y="760" fill="#fff0c7" font-size="58" font-family="Arial, sans-serif" font-weight="700">KREA84 FESTIVAL MERCH BUNDLE</text>
</svg>
