<svg xmlns="http://www.w3.org/2000/svg" viewBox="0 0 1200 900" role="img" aria-labelledby="title desc">
  <title id="title">Afrobeats Sync License Pack</title>
  <desc id="desc">A polished music licensing artwork with waveform curves, vinyl motifs, and studio interface styling.</desc>
  <defs>
    <linearGradient id="bg" x1="0" y1="0" x2="1" y2="1">
      <stop offset="0%" stop-color="#091421"/>
      <stop offset="100%" stop-color="#0f3551"/>
    </linearGradient>
    <linearGradient id="wave" x1="0" y1="0" x2="1" y2="0">
      <stop offset="0%" stop-color="#ff725e"/>
      <stop offset="50%" stop-color="#ffd166"/>
      <stop offset="100%" stop-color="#5eead4"/>
    </linearGradient>
  </defs>
  <rect width="1200" height="900" fill="url(#bg)"/>
  <circle cx="920" cy="220" r="170" fill="#11283f"/>
  <circle cx="920" cy="220" r="128" fill="#1c445f"/>
  <circle cx="920" cy="220" r="32" fill="#ffd166"/>
  <rect x="100" y="120" width="640" height="520" rx="28" fill="#0d2133" stroke="#325e7d" stroke-width="8"/>
  <path d="M150 400c70-100 140 100 210 0s140-100 210 0 140 100 210 0" fill="none" stroke="url(#wave)" stroke-width="18" stroke-linecap="round"/>
  <path d="M150 310c50-50 100 50 150 0s100-50 150 0 100 50 150 0 100-50 150 0" fill="none" stroke="#72f1b8" stroke-width="10" opacity=".8"/>
  <rect x="150" y="180" width="160" height="34" rx="17" fill="#19364f"/>
  <rect x="150" y="232" width="250" height="18" rx="9" fill="#325e7d"/>
  <rect x="150" y="268" width="190" height="18" rx="9" fill="#325e7d"/>
  <g fill="#19364f">
    <rect x="150" y="480" width="120" height="90" rx="12"/>
    <rect x="290" y="480" width="120" height="90" rx="12"/>
    <rect x="430" y="480" width="120" height="90" rx="12"/>
  </g>
  <text x="100" y="760" fill="#ecf7ff" font-size="58" font-family="Arial, sans-serif" font-weight="700">AFROBEATS SYNC LICENSE PACK</text>
</svg>
