<svg xmlns="http://www.w3.org/2000/svg" viewBox="0 0 1200 900" role="img" aria-labelledby="title desc">
  <title id="title">Ankara Heritage Wall Set</title>
  <desc id="desc">A gallery-style display of framed Ankara textile wall art in warm terracotta, gold, and charcoal tones.</desc>
  <defs>
    <linearGradient id="bg" x1="0" y1="0" x2="1" y2="1">
      <stop offset="0%" stop-color="#26150f"/>
      <stop offset="100%" stop-color="#7a311c"/>
    </linearGradient>
    <pattern id="dots" width="24" height="24" patternUnits="userSpaceOnUse">
      <circle cx="8" cy="8" r="4" fill="#f1b63b"/>
      <circle cx="20" cy="20" r="4" fill="#f7e3a1"/>
    </pattern>
  </defs>
  <rect width="1200" height="900" fill="url(#bg)"/>
  <rect x="80" y="90" width="1040" height="720" rx="36" fill="#f3e4d0" opacity=".08"/>
  <g transform="translate(130 170)">
    <rect width="250" height="420" rx="10" fill="#3a2319" stroke="#d7a741" stroke-width="12"/>
    <rect x="28" y="28" width="194" height="364" fill="#c53e24"/>
    <rect x="44" y="46" width="162" height="328" fill="url(#dots)"/>
    <path d="M44 210h162" stroke="#2e1d16" stroke-width="18"/>
    <path d="M125 46v328" stroke="#2e1d16" stroke-width="18"/>
  </g>
  <g transform="translate(475 130)">
    <rect width="250" height="500" rx="10" fill="#3a2319" stroke="#d7a741" stroke-width="12"/>
    <rect x="28" y="28" width="194" height="444" fill="#f1b63b"/>
    <circle cx="125" cy="250" r="88" fill="#c53e24"/>
    <circle cx="125" cy="250" r="46" fill="#26150f"/>
    <path d="M55 96h140M55 404h140" stroke="#fff0c2" stroke-width="20"/>
  </g>
  <g transform="translate(820 170)">
    <rect width="250" height="420" rx="10" fill="#3a2319" stroke="#d7a741" stroke-width="12"/>
    <rect x="28" y="28" width="194" height="364" fill="#2e1d16"/>
    <path d="M58 76h134v268H58z" fill="#c53e24"/>
    <path d="M58 210h134" stroke="#f1b63b" stroke-width="24"/>
    <path d="M125 76v268" stroke="#f1b63b" stroke-width="24"/>
  </g>
  <text x="120" y="760" fill="#fff0c2" font-size="58" font-family="Georgia, serif">ANKARA HERITAGE WALL SET</text>
</svg>
